<mxfile host="www.draw.io" modified="2023-10-05T20:43:21.194Z" agent="Mozilla/5.0 (Windows NT 10.0; Win64; x64) AppleWebKit/537.36 (KHTML, like Gecko) Chrome/117.0.0.0 Safari/537.36" etag="QjhhsOWLXOJEIzPJU8v6" version="22.0.3" type="device">
  <diagram name="Page-1" id="DU4SEsdEzoPoFPfCn45Z">
    <mxGraphModel dx="1318" dy="525" grid="1" gridSize="10" guides="1" tooltips="1" connect="1" arrows="1" fold="1" page="1" pageScale="1" pageWidth="1169" pageHeight="827" math="0" shadow="0">
      <root>
        <mxCell id="0" />
        <mxCell id="1" parent="0" />
        <mxCell id="yXGtwgDx1ludVsoYRG4f-6" value="Array" style="rounded=0;whiteSpace=wrap;html=1;" vertex="1" parent="1">
          <mxGeometry x="60" y="50" width="1030" height="130" as="geometry" />
        </mxCell>
        <mxCell id="yXGtwgDx1ludVsoYRG4f-1" value="1" style="rounded=0;whiteSpace=wrap;html=1;" vertex="1" parent="1">
          <mxGeometry x="90" y="86" width="50" height="60" as="geometry" />
        </mxCell>
        <mxCell id="yXGtwgDx1ludVsoYRG4f-2" value="10" style="rounded=0;whiteSpace=wrap;html=1;" vertex="1" parent="1">
          <mxGeometry x="179" y="84" width="50" height="60" as="geometry" />
        </mxCell>
        <mxCell id="yXGtwgDx1ludVsoYRG4f-3" value="10" style="rounded=0;whiteSpace=wrap;html=1;" vertex="1" parent="1">
          <mxGeometry x="260" y="84" width="50" height="60" as="geometry" />
        </mxCell>
        <mxCell id="yXGtwgDx1ludVsoYRG4f-4" value="8" style="rounded=0;whiteSpace=wrap;html=1;" vertex="1" parent="1">
          <mxGeometry x="350" y="84" width="50" height="60" as="geometry" />
        </mxCell>
        <mxCell id="yXGtwgDx1ludVsoYRG4f-5" value="9" style="rounded=0;whiteSpace=wrap;html=1;" vertex="1" parent="1">
          <mxGeometry x="450" y="84" width="50" height="60" as="geometry" />
        </mxCell>
        <mxCell id="yXGtwgDx1ludVsoYRG4f-7" value="9" style="rounded=0;whiteSpace=wrap;html=1;" vertex="1" parent="1">
          <mxGeometry x="710" y="84" width="50" height="60" as="geometry" />
        </mxCell>
        <mxCell id="yXGtwgDx1ludVsoYRG4f-8" value="9" style="rounded=0;whiteSpace=wrap;html=1;" vertex="1" parent="1">
          <mxGeometry x="616" y="86" width="50" height="60" as="geometry" />
        </mxCell>
        <mxCell id="yXGtwgDx1ludVsoYRG4f-9" value="" style="endArrow=classic;html=1;rounded=0;" edge="1" parent="1">
          <mxGeometry width="50" height="50" relative="1" as="geometry">
            <mxPoint x="70" y="220" as="sourcePoint" />
            <mxPoint x="1070" y="220" as="targetPoint" />
          </mxGeometry>
        </mxCell>
        <mxCell id="yXGtwgDx1ludVsoYRG4f-10" value="" style="endArrow=classic;html=1;rounded=0;" edge="1" parent="1">
          <mxGeometry width="50" height="50" relative="1" as="geometry">
            <mxPoint x="170" y="430" as="sourcePoint" />
            <mxPoint x="110" y="190" as="targetPoint" />
          </mxGeometry>
        </mxCell>
        <mxCell id="yXGtwgDx1ludVsoYRG4f-11" value="" style="endArrow=classic;html=1;rounded=0;" edge="1" parent="1">
          <mxGeometry width="50" height="50" relative="1" as="geometry">
            <mxPoint x="270" y="420" as="sourcePoint" />
            <mxPoint x="370" y="190" as="targetPoint" />
          </mxGeometry>
        </mxCell>
        <mxCell id="yXGtwgDx1ludVsoYRG4f-12" value="" style="endArrow=classic;html=1;rounded=0;" edge="1" parent="1">
          <mxGeometry width="50" height="50" relative="1" as="geometry">
            <mxPoint x="520" y="440" as="sourcePoint" />
            <mxPoint x="630" y="190" as="targetPoint" />
          </mxGeometry>
        </mxCell>
      </root>
    </mxGraphModel>
  </diagram>
</mxfile>
